<?xml version="1.0" encoding="utf-8"?>
<!-- Generator: Adobe Illustrator 24.1.0, SVG Export Plug-In . SVG Version: 6.00 Build 0)  -->
<svg version="1.1" id="Layer_1" xmlns="http://www.w3.org/2000/svg" xmlns:xlink="http://www.w3.org/1999/xlink" x="0px" y="0px"
	 width="281.43px" height="76.45px" viewBox="0 0 281.43 76.45" style="enable-background:new 0 0 281.43 76.45;"
	 xml:space="preserve">
<style type="text/css">
	.st0{fill:#F26E14;}
	.st1{stroke:#000000;stroke-width:0.5;}
</style>
<g>
	<path d="M49.48,14.26l-2.87,7.22h-2.74L41,14.26l-0.98,8.85h-2.77l1.18-9.29c0.11-0.83,0.56-1.41,1.35-1.75
		c0.33-0.13,0.67-0.19,1.03-0.19c0.78,0,1.37,0.26,1.77,0.78c0.1,0.13,0.19,0.26,0.25,0.41l2.4,6.11l2.4-6.11
		c0.26-0.61,0.76-0.98,1.5-1.13c0.18-0.04,0.35-0.06,0.52-0.06c0.81,0,1.45,0.27,1.91,0.82c0.26,0.32,0.42,0.7,0.47,1.12l1.18,9.29
		h-2.77L49.48,14.26z"/>
	<path d="M63.39,21.63h-5.62l1.38-1.94h3.46l-2.19-5.48l-3.58,8.9h-2.77l3.77-9.34c0.55-1.3,1.41-1.96,2.58-1.97
		c1.17,0.01,2.03,0.67,2.57,1.97l3.78,9.34H64L63.39,21.63z"/>
	<path d="M70.79,13.9v9.22H68.2v-9.19c0-0.67,0.33-1.19,0.98-1.58c0.44-0.25,0.92-0.38,1.45-0.38h3.5c1.56,0,2.82,0.41,3.77,1.22
		c0.8,0.69,1.2,1.55,1.2,2.57v0.43c0,1.27-0.58,2.26-1.74,2.97c-0.44,0.26-0.92,0.46-1.45,0.6l3.48,3.38h-3.23l-3.21-3.16h-1.99
		l1.38-1.94h1.79c1.06,0,1.77-0.32,2.14-0.95c0.15-0.26,0.22-0.56,0.22-0.9v-0.43c0-0.88-0.46-1.45-1.37-1.72
		c-0.3-0.09-0.64-0.13-1-0.13H70.79z"/>
	<path d="M81.34,11.96h2.62v4.67h1.65l3.28-4.67h2.94l-4.07,5.58l4.25,5.58h-2.96l-3.36-4.55h-1.74v4.55h-2.62V11.96z"/>
	<path d="M107.06,21.63h-5.62l1.38-1.94h3.46l-2.19-5.48l-3.58,8.9h-2.77l3.77-9.34c0.55-1.3,1.41-1.96,2.58-1.97
		c1.17,0.01,2.03,0.67,2.57,1.97l3.78,9.34h-2.77L107.06,21.63z"/>
	<path d="M111.18,22.5c0-0.51,0.25-0.9,0.74-1.17c0.27-0.15,0.56-0.22,0.86-0.22c0.59,0,1.04,0.22,1.35,0.65
		c0.17,0.24,0.25,0.48,0.25,0.75c0,0.51-0.25,0.9-0.74,1.17c-0.27,0.15-0.56,0.22-0.86,0.22c-0.59,0-1.04-0.21-1.35-0.65
		C111.26,23.01,111.18,22.76,111.18,22.5z"/>
	<path class="st0" d="M124.08,21.18h6.11l1.2,1.94h-7.46c-0.83,0-1.49-0.27-1.98-0.82c-0.3-0.34-0.46-0.72-0.46-1.14v-9.19h2.58
		V21.18z"/>
	<path class="st0" d="M132.49,11.96h2.58v11.16h-2.58V11.96z"/>
	<path class="st0" d="M140.84,11.96l-1.38,1.94h-2.55v-1.94H140.84z M142.95,23.12h-2.6v-9.19c0-0.66,0.33-1.18,0.98-1.57
		c0.44-0.26,0.93-0.4,1.47-0.4h3.83v1.94h-3.68V23.12z"/>
	<path class="st0" d="M151.67,11.96l-1.38,1.94h-2.55v-1.94H151.67z M153.78,23.12h-2.6v-9.19c0-0.66,0.33-1.18,0.98-1.57
		c0.44-0.26,0.93-0.4,1.47-0.4h3.83v1.94h-3.68V23.12z"/>
	<path class="st0" d="M161.81,21.18h6.11l1.2,1.94h-7.46c-0.83,0-1.49-0.27-1.98-0.82c-0.3-0.34-0.46-0.72-0.46-1.14v-9.19h2.58
		V21.18z"/>
	<path class="st0" d="M172.57,18.56v2.61h6.62l1.22,1.94h-7.99c-0.82,0-1.48-0.27-1.98-0.81c-0.32-0.35-0.47-0.74-0.47-1.16v-7.22
		c0-0.66,0.33-1.18,0.98-1.57c0.44-0.26,0.93-0.4,1.47-0.4h7.99l-1.22,1.94h-6.62v2.73h6.1v1.94H172.57z"/>
	<path class="st0" d="M185.69,20.81l2.87-7.22h2.74l2.87,7.22l0.98-8.85h2.77l-1.17,9.29c-0.11,0.83-0.56,1.41-1.35,1.73
		c-0.34,0.14-0.69,0.21-1.05,0.21c-0.78,0-1.37-0.26-1.77-0.79c-0.1-0.13-0.18-0.26-0.24-0.4l-2.41-6.11l-2.4,6.11
		c-0.26,0.61-0.76,0.98-1.5,1.13c-0.18,0.04-0.35,0.06-0.52,0.06c-0.81,0-1.45-0.27-1.91-0.82c-0.26-0.32-0.42-0.69-0.47-1.12
		l-1.18-9.29h2.77L185.69,20.81z"/>
	<path class="st0" d="M206.07,23.26h-1.72c-1.4,0-2.58-0.43-3.56-1.29c-0.93-0.82-1.4-1.81-1.4-2.95v-2.97
		c0-1.19,0.5-2.21,1.49-3.04c0.98-0.8,2.14-1.2,3.48-1.2h1.72c1.4,0,2.58,0.43,3.56,1.29c0.93,0.82,1.4,1.81,1.4,2.95v2.97
		c0,1.19-0.5,2.21-1.49,3.04C208.57,22.86,207.41,23.26,206.07,23.26z M204.35,21.33h1.72c0.78,0,1.4-0.3,1.88-0.91
		c0.33-0.42,0.49-0.89,0.49-1.39v-2.97c0-0.77-0.32-1.39-0.96-1.85c-0.42-0.3-0.88-0.46-1.4-0.46h-1.72c-0.78,0-1.4,0.3-1.87,0.9
		c-0.34,0.42-0.51,0.89-0.51,1.41v2.97c0,0.76,0.31,1.38,0.95,1.83C203.35,21.17,203.83,21.33,204.35,21.33z"/>
	<path class="st0" d="M219.26,23.26h-1.72c-1.4,0-2.58-0.43-3.56-1.29c-0.93-0.82-1.4-1.81-1.4-2.95v-2.97
		c0-1.19,0.5-2.21,1.49-3.04c0.98-0.8,2.14-1.2,3.48-1.2h1.72c1.4,0,2.58,0.43,3.56,1.29c0.93,0.82,1.4,1.81,1.4,2.95v2.97
		c0,1.19-0.5,2.21-1.49,3.04C221.76,22.86,220.6,23.26,219.26,23.26z M217.54,21.33h1.72c0.78,0,1.4-0.3,1.88-0.91
		c0.33-0.42,0.49-0.89,0.49-1.39v-2.97c0-0.77-0.32-1.39-0.96-1.85c-0.42-0.3-0.88-0.46-1.4-0.46h-1.72c-0.78,0-1.4,0.3-1.87,0.9
		c-0.34,0.42-0.51,0.89-0.51,1.41v2.97c0,0.76,0.31,1.38,0.95,1.83C216.54,21.17,217.02,21.33,217.54,21.33z"/>
	<path class="st0" d="M226.28,13.93c0-0.67,0.33-1.19,0.98-1.58c0.44-0.25,0.92-0.38,1.45-0.38h3.5c1.4,0,2.58,0.43,3.56,1.29
		c0.93,0.82,1.4,1.81,1.4,2.95v2.67c0,1.19-0.5,2.21-1.49,3.04c-0.98,0.8-2.14,1.2-3.48,1.2h-5.93V13.93z M234.57,18.87V16.2
		c0-0.77-0.32-1.39-0.96-1.85c-0.42-0.3-0.88-0.46-1.4-0.46h-3.34v7.28h3.34c0.78,0,1.4-0.3,1.88-0.91
		C234.41,19.85,234.57,19.38,234.57,18.87z"/>
</g>
<g>
	<path class="st1" d="M29.77,52.92c-0.68-0.38-1.26-1.11-1.54-1.97c-0.66-2,0.11-4.41,1.97-6.15c0.4-0.38,2.68-2.35,4.45-2.09
		c0.66,0.09,1.26,0.51,1.68,1.14c0.48,0.83,0.46,1.81-0.09,2.67c-0.14,0.25-0.51,0.25-0.83,0c-0.31-0.29-0.46-0.7-0.31-0.95
		c0.37-0.57,0.34-1.05,0.2-1.3c-0.09-0.16-0.26-0.22-0.37-0.22c-0.86-0.13-2.4,0.7-3.71,1.94c-1.83,1.68-2.17,3.74-1.74,5.01
		c0.06,0.22,0.23,0.63,0.54,0.79c0.26,0.16,0.69,0.29,1.23,0.29c0.69,0,1.66-0.19,2.74-0.73c2.03-0.95,3.99-2.79,5.51-5.11
		c0.14-0.25,0.54-0.25,0.83,0.03c0.31,0.25,0.43,0.73,0.34,0.89c-0.23,0.38-0.68,0.98-1,1.4c-1.77,2.25-3.57,3.43-4.85,4.03
		c-1.11,0.54-2.2,0.79-3.17,0.79C30.97,53.37,30.31,53.24,29.77,52.92z"/>
	<path class="st1" d="M39.36,52.13c-0.29-0.29-0.63-0.73-0.83-1.36c-0.2-0.6-0.31-1.46-0.09-2.41c0.31-1.36,1.6-3.49,4.11-5.04
		c0.17-0.06,1.08-0.54,2.11-0.54c0.4,0,0.83,0.09,1.23,0.29c0.51,0.25,0.97,0.73,1.23,1.33c0.17,0.38,0.06,0.7-0.23,0.76
		c-0.34,0.03-0.74-0.22-0.88-0.57c-0.11-0.22-0.23-0.32-0.31-0.35c-0.34-0.19-1.26-0.19-2.17,0.35c-2.2,1.33-3.48,3.24-3.79,4.54
		c-0.23,0.95-0.11,1.78,0.37,2.28c0.46,0.48,1.26,0.67,2.08,0.48c2.48-0.54,4.08-2.76,4.74-4.47c-0.14-0.19-0.23-0.41-0.34-0.63
		c-0.17-0.51-0.06-0.95,0.29-1.17c0.54-0.35,1,0,1.17,0.16c0.4,0.41,0.43,0.98,0.37,1.36l-0.03,0.25c0.11,0.1,0.26,0.16,0.4,0.22
		c0.4,0.22,1.06,0.44,1.8,0.25c0.8-0.16,1.51-0.73,2.14-1.62c0.14-0.25,0.54-0.22,0.86,0.06c0.31,0.25,0.46,0.6,0.31,0.86
		c-0.11,0.19-0.26,0.38-0.4,0.51c-0.86,1.05-1.88,1.59-3.02,1.59c-0.51,0-1.06-0.1-1.57-0.32c-0.31-0.13-0.57-0.29-0.83-0.44
		c-0.8,1.94-2.57,4.09-5.22,4.7c-0.31,0.06-0.57,0.09-0.86,0.09C41.02,53.27,40.04,52.86,39.36,52.13z"/>
	<path class="st1" d="M63.39,53.69c-0.49-0.06-0.94-0.35-1.34-0.76c-0.29-0.32-0.46-0.7-0.6-1.11c-0.37-1.17-0.4-2.67-0.34-3.39
		c-0.54,0.79-1.11,1.55-1.77,2.25c-1.63,1.68-3.51,2.73-4.88,2.73h-0.2c-0.91-0.06-1.71-0.6-2.2-1.43
		c-0.57-0.98-0.69-2.38-0.31-3.71c0.29-1.05,0.86-2.09,1.65-3.05c1.46-1.68,3.11-2.63,4.42-2.7c0.97-0.06,1.94,0.38,2.65,1.21
		c0.23,0.25,0.51,0.63,0.74,1.14c0.2-0.51,0.37-1.05,0.54-1.62c0.06-0.41,0.14-0.82,0.29-1.24c-0.03-0.03,0-0.06,0-0.13l0.09-0.22
		c0.69-2.76,1.97-6.63,3.28-9.83c2.37-5.87,3.25-5.96,3.6-5.96c0.34-0.03,0.71,0.25,0.83,0.6c0.17,0.38,0.03,0.67-0.29,0.7
		c-0.31,0.13-1.31,1.43-3.02,5.68c-1.26,3.14-2.48,6.88-3.14,9.52l-0.17,0.7l-0.14,0.7c-0.37,1.78-0.6,3.49-0.69,4.95
		c-0.11,2.76,0.4,3.46,0.49,3.52c0.03,0.06,0.09,0.1,0.2,0.13c0.68,0.06,1.85-0.86,3.22-2.47c1.2-1.49,2.17-3.11,2.45-3.65
		c0.14-0.25,0.51-0.29,0.83-0.03c0.34,0.25,0.46,0.67,0.34,0.95c-0.29,0.57-1.31,2.25-2.57,3.77c-1.51,1.84-2.74,2.76-3.77,2.76
		H63.39z M58.34,43.85c-0.83,0.03-2.28,0.7-3.82,2.51c-0.8,0.92-1.34,2.03-1.57,3.08c-0.2,0.89-0.14,1.68,0.14,2.16
		c0.09,0.13,0.26,0.41,0.83,0.48c0.91,0.06,2.63-0.7,4.37-2.51c0.83-0.83,1.51-1.81,2.08-2.86c0.06-0.51,0.03-0.95-0.11-1.36
		c-0.11-0.35-0.29-0.63-0.51-0.89c-0.37-0.41-0.83-0.6-1.34-0.6H58.34z"/>
	<path class="st1" d="M69.92,53.15c-0.71-0.38-1.28-0.95-1.63-1.68c-0.4-0.76-0.48-1.59-0.48-2.28c0-1.46,0.66-2.67,1.51-3.9
		c1.08-1.49,2.51-2.73,3.68-2.73c0.91,0,1.54,0.48,1.85,1.43c0.31,0.95-0.26,1.94-1.8,3.17c-1.03,0.79-2.45,1.68-3.97,2.44
		c-0.03,0.54,0.03,1.11,0.29,1.62c0.17,0.35,0.43,0.6,0.77,0.79c0.2,0.09,0.71,0.29,1.66,0.09c0.74-0.16,1.6-0.51,2.51-1.01
		c1.91-1.11,3.71-2.89,4.91-4.85c0.14-0.25,0.54-0.22,0.86,0.03s0.46,0.63,0.31,0.89c-1.23,2.03-3.17,3.96-5.22,5.14
		c-0.86,0.54-2.31,1.21-3.71,1.21C70.95,53.5,70.41,53.4,69.92,53.15z M73.43,43.88c-0.97,0-2.68,1.78-3.71,3.68
		c0.91-0.54,1.71-1.08,2.34-1.59c1.48-1.14,1.65-1.84,1.6-2l-0.03-0.09H73.43z"/>
	<path class="st1" d="M79.31,53.21c-0.29-0.19-0.48-0.54-0.46-0.82c0-0.16,0.06-0.32,0.6-1.78c0.49-1.24,1.11-2.95,1.66-4.5
		c0.09-0.25,0.14-0.48,0.2-0.7l-0.48,0.92l-0.43,0.83c-0.17,0.25-0.54,0.29-0.88,0c-0.31-0.25-0.46-0.67-0.29-0.92
		c0.11-0.19,0.31-0.48,0.48-0.83c0.34-0.67,0.74-1.46,1.14-2.12c0.6-1.02,0.97-1.4,1.54-1.14c0.14,0.06,0.54,0.29,0.68,0.89
		c0.14,0.79-0.29,2.51-1.23,5.11c0.43-0.51,0.91-0.98,1.34-1.43c3.08-3.11,3.99-2.73,4.37-2.6c0.94,0.38,1.17,1.55,1.28,1.94
		c0.11,0.67,0.2,1.49,0.26,2.35c0.09,0.79,0.14,1.59,0.26,2.28c0.17,0.89,0.37,1.11,0.4,1.14l0.14,0.06
		c1.57,0.06,3.97-2.89,5.51-5.65c0.14-0.25,0.54-0.29,0.86,0c0.31,0.25,0.46,0.67,0.31,0.92c-0.17,0.32-1.06,1.84-2.23,3.3
		c-1.48,1.84-2.77,2.76-3.97,2.76H90.3c-0.57-0.03-1-0.35-1.26-0.6c-0.31-0.35-0.54-0.76-0.69-1.27c-0.31-0.92-0.4-2.09-0.51-3.3
		c-0.06-0.7-0.14-1.33-0.23-1.87c-0.06-0.44-0.11-0.67-0.17-0.79c-0.29,0.06-1.26,0.41-3.34,2.57c-1.6,1.62-3.17,3.65-4.05,5.17
		c-0.09,0.13-0.23,0.19-0.37,0.19C79.57,53.31,79.45,53.27,79.31,53.21z"/>
	<path class="st1" d="M95.4,52.77c-0.37-0.29-0.88-0.83-1.14-1.75c-0.46-1.55,0-3.49,1.28-5.04c1.48-1.81,3.45-2.86,5.08-2.82
		c1.06,0,2,0.48,2.68,1.27l0.23-0.41c0.23-0.32,0.6-0.19,0.83-0.06c0.26,0.19,0.49,0.57,0.37,0.92c-0.11,0.57-0.46,2-0.54,3.55
		c-0.11,1.84,0.14,2.86,0.43,3.2c0,0.03,0.09,0.13,0.37,0.13c1.83,0,4.51-3.78,5.45-5.52c0.14-0.25,0.51-0.29,0.86-0.03
		c0.31,0.25,0.46,0.7,0.31,0.95c-0.37,0.67-1.26,2.09-2.34,3.43c-1.43,1.68-2.71,2.54-3.85,2.51c-0.86,0-1.43-0.54-1.66-0.82
		c-0.23-0.29-0.4-0.63-0.54-1.08c-0.26-0.79-0.4-1.87-0.31-3.17c-0.34,0.54-0.74,1.14-1.14,1.68c-1.57,2.09-3.08,3.3-4.39,3.52
		c-0.17,0.03-0.31,0.06-0.46,0.06C96.26,53.27,95.75,53.02,95.4,52.77z M96.69,47.09c-1.28,1.55-1.48,3.08-1.2,4
		c0.06,0.22,0.14,0.51,0.4,0.7c0.2,0.13,0.51,0.19,0.86,0.13c1.65-0.32,3.71-2.47,5.99-6.44c-0.48-0.79-1.08-0.98-1.71-0.98
		C99.51,44.49,97.74,45.79,96.69,47.09z"/>
	<path class="st1" d="M100.26,36.3c-0.34-0.03-0.71-0.35-0.8-0.73c-0.09-0.35,0.09-0.63,0.43-0.6c0.77,0.06,1.77,0.06,3,0.06
		c2.91,0,6.88-0.13,11.07-0.32c1.46-3.46,3.17-6.69,4.82-9.26c0.17-0.22,0.54-0.22,0.86,0.06c0.31,0.25,0.43,0.7,0.26,0.92
		c-1.31,2.06-2.85,4.95-4.22,8.18c7.56-0.41,15.58-1.05,19.43-1.68c0.31-0.03,0.71,0.22,0.88,0.57c0.14,0.38,0.03,0.7-0.26,0.76
		c-3.42,0.54-10.36,1.14-18.12,1.59l-2.54,0.16l-0.23,0.6c-1.57,3.93-2.68,7.58-3.08,10.02l-0.09,0.44c-0.2,1.27-0.6,3.62,0.06,4.57
		c0.06,0.09,0.2,0.25,0.46,0.35c0.37,0.13,1.37,0,2.71-0.79c1.14-0.7,2.88-2.09,4.59-4.98c0.17-0.25,0.54-0.25,0.86,0
		s0.46,0.67,0.31,0.92c-2.71,4.47-5.85,6.22-7.73,6.22c-0.26,0-0.51-0.03-0.74-0.13c-0.57-0.19-1.06-0.57-1.43-1.11
		c-0.74-1.14-0.74-2.76-0.57-4.22c0.48-3.81,1.65-7.93,3.2-11.83c-3.88,0.19-7.33,0.29-9.93,0.29
		C102.14,36.36,101.06,36.33,100.26,36.3z"/>
	<path class="st1" d="M120.92,52.99c-0.66-0.13-1.26-0.57-1.63-1.17c-0.54-0.92-0.63-2.28-0.26-4.03c0.29-1.36,0.83-2.6,1.17-3.27
		c0.26-0.38,0.46-0.7,0.91-0.57c0.29,0.06,0.63,0.41,0.77,0.76c0.11,0.35,0.03,0.63-0.2,0.76c-0.09,0.03-0.2,0.03-0.31,0.03
		c-0.23,0.44-0.6,1.3-0.91,2.35c-0.63,2.32-0.29,3.27-0.17,3.52c0.06,0.13,0.14,0.25,0.46,0.32c1.77,0.41,5.05-2.16,6.96-5.46
		c0.17-0.29,0.54-0.25,0.86,0c0.31,0.25,0.46,0.67,0.31,0.92c-1.51,2.6-4.65,5.9-7.33,5.9C121.34,53.05,121.14,53.05,120.92,52.99z
		 M121.43,41.98c-0.34-0.22-0.54-0.63-0.46-0.95c0.43-1.3,1.14-2.92,1.17-3.01c0.14-0.25,0.48-0.29,0.83-0.06
		c0.31,0.25,0.49,0.67,0.37,0.95c0,0-0.74,1.68-1.17,2.92c-0.03,0.19-0.17,0.29-0.37,0.29C121.71,42.11,121.54,42.04,121.43,41.98z"
		/>
	<path class="st1" d="M127.56,52.13c-0.29-0.29-0.63-0.73-0.83-1.36c-0.2-0.6-0.31-1.46-0.08-2.41c0.31-1.36,1.6-3.49,4.11-5.04
		c0.17-0.06,1.08-0.54,2.11-0.54c0.4,0,0.83,0.09,1.23,0.29c0.51,0.25,0.97,0.73,1.23,1.33c0.17,0.38,0.06,0.7-0.23,0.76
		c-0.34,0.03-0.74-0.22-0.88-0.57c-0.11-0.22-0.23-0.32-0.31-0.35c-0.34-0.19-1.25-0.19-2.17,0.35c-2.2,1.33-3.48,3.24-3.79,4.54
		c-0.23,0.95-0.11,1.78,0.37,2.28c0.46,0.48,1.26,0.67,2.08,0.48c2.48-0.54,4.08-2.76,4.74-4.47c-0.14-0.19-0.23-0.41-0.34-0.63
		c-0.17-0.51-0.06-0.95,0.29-1.17c0.54-0.35,1,0,1.17,0.16c0.4,0.41,0.43,0.98,0.37,1.36l-0.03,0.25c0.11,0.1,0.26,0.16,0.4,0.22
		c0.4,0.22,1.06,0.44,1.8,0.25c0.8-0.16,1.51-0.73,2.14-1.62c0.14-0.25,0.54-0.22,0.86,0.06c0.31,0.25,0.46,0.6,0.31,0.86
		c-0.11,0.19-0.26,0.38-0.4,0.51c-0.86,1.05-1.88,1.59-3.02,1.59c-0.51,0-1.06-0.1-1.57-0.32c-0.31-0.13-0.57-0.29-0.83-0.44
		c-0.8,1.94-2.57,4.09-5.22,4.7c-0.31,0.06-0.57,0.09-0.86,0.09C129.22,53.27,128.25,52.86,127.56,52.13z"/>
	<path class="st1" d="M141,53.21c-0.29-0.19-0.49-0.54-0.46-0.82c0-0.16,0.06-0.32,0.6-1.78c0.49-1.24,1.11-2.95,1.66-4.5
		c0.08-0.25,0.14-0.48,0.2-0.7l-0.48,0.92l-0.43,0.83c-0.17,0.25-0.54,0.29-0.88,0c-0.31-0.25-0.46-0.67-0.29-0.92
		c0.11-0.19,0.31-0.48,0.49-0.83c0.34-0.67,0.74-1.46,1.14-2.12c0.6-1.02,0.97-1.4,1.54-1.14c0.14,0.06,0.54,0.29,0.68,0.89
		c0.14,0.79-0.29,2.51-1.23,5.11c0.43-0.51,0.91-0.98,1.34-1.43c3.08-3.11,3.99-2.73,4.37-2.6c0.94,0.38,1.17,1.55,1.28,1.94
		c0.11,0.67,0.2,1.49,0.26,2.35c0.09,0.79,0.14,1.59,0.26,2.28c0.17,0.89,0.37,1.11,0.4,1.14l0.14,0.06
		c1.57,0.06,3.97-2.89,5.51-5.65c0.14-0.25,0.54-0.29,0.86,0c0.31,0.25,0.46,0.67,0.31,0.92c-0.17,0.32-1.06,1.84-2.23,3.3
		c-1.48,1.84-2.77,2.76-3.97,2.76h-0.09c-0.57-0.03-1-0.35-1.25-0.6c-0.31-0.35-0.54-0.76-0.69-1.27c-0.31-0.92-0.4-2.09-0.51-3.3
		c-0.06-0.7-0.14-1.33-0.23-1.87c-0.06-0.44-0.11-0.67-0.17-0.79c-0.29,0.06-1.25,0.41-3.34,2.57c-1.6,1.62-3.17,3.65-4.05,5.17
		c-0.09,0.13-0.23,0.19-0.37,0.19C141.26,53.31,141.15,53.27,141,53.21z"/>
	<path class="st1" d="M162.04,73.01c-0.63-0.38-0.77-1.24-0.83-1.52c-0.48-2.89,0.51-11.1,1.54-17.29c0.63-3.55,1.26-6.85,1.83-9.33
		c1.06-4.28,1.6-4.47,1.85-4.57c0.23-0.09,0.54,0,0.8,0.22c0.34,0.29,0.43,0.7,0.26,0.95c-0.06,0.13-0.17,0.19-0.37,0.16
		c-0.37,0.51-1.11,2.95-1.97,7.26c0.77-1.36,1.8-2.63,2.94-3.62c0.8-0.67,1.6-1.14,2.4-1.43c0.49-0.19,1-0.25,1.46-0.25
		c0.37,0,0.71,0.03,1.08,0.16c0.94,0.32,1.71,1.01,2.14,1.94c0.46,0.95,0.49,2.03,0.31,3.08c1.65-0.48,3.17-1.17,3.99-2.54
		c0.14-0.25,0.54-0.25,0.86,0.03c0.31,0.25,0.43,0.67,0.29,0.92c-1.2,1.97-3.48,2.67-5.65,3.24c-0.29,0.54-0.6,1.05-0.97,1.46
		c-0.8,0.89-1.91,1.55-2.48,1.68c-0.23,0.03-0.54,0.09-0.91,0.09c-0.54,0-1.14-0.13-1.54-0.76c-0.63-1.08,0.4-2.19,0.77-2.38
		c1-0.57,2.31-0.89,3.68-1.24l0.4-0.09c0.46-1.14,0.54-2.44,0.14-3.27c-0.23-0.44-0.51-0.73-1-0.89c-1.06-0.35-2.54,0.19-3.99,1.4
		c-1.46,1.24-2.71,3.01-3.45,4.79c-0.68,1.74-1.97,6.06-2.37,8.88c0,0.03-0.03,0.03,0,0.06c-1.11,8.18-0.91,11.29-0.68,11.9
		c0.23,0.22,0.37,0.57,0.29,0.83c-0.06,0.16-0.2,0.25-0.4,0.25C162.32,73.13,162.18,73.1,162.04,73.01z M170.71,51.72
		c-0.17,0.09-0.37,0.38-0.49,0.6c0.17,0,0.34-0.03,0.66-0.06c0.31-0.06,1.2-0.57,1.94-1.33C171.99,51.15,171.28,51.4,170.71,51.72z"
		/>
	<path class="st1" d="M185.32,53.34c-0.66-0.09-1.08-0.44-1.34-0.73c-0.31-0.35-0.54-0.76-0.69-1.24c-0.29-0.86-0.34-1.84-0.43-2.89
		c-0.09-0.82-0.11-1.68-0.31-2.22c-0.14-0.35-0.37-0.63-0.8-1.08l-0.14-0.16c-0.23,0.7-0.57,1.4-0.97,2.13
		c-0.17,0.29-0.54,0.29-0.86,0c-0.31-0.25-0.46-0.67-0.31-0.92c0.51-0.89,0.86-1.75,1.11-2.47c-0.37-0.54-0.66-1.21-0.8-2
		c-0.26-1.27-0.06-3.04,0.86-3.01c0.2,0,0.83,0.1,1.23,1.11c0.34,0.76,0.49,2.22,0.06,4l0.51,0.54c0.51,0.51,1.03,1.08,1.31,1.84
		c0.23,0.73,0.31,1.65,0.37,2.6c0.11,1.05,0.2,2.57,0.66,3.05c0,0.03,0.08,0.13,0.29,0.16c0.34,0.03,1.4-0.03,3.37-2.03
		c1.28-1.3,2.45-2.85,2.91-3.77c0.14-0.25,0.54-0.29,0.86-0.03c0.31,0.25,0.46,0.7,0.31,0.95c-0.57,0.98-1.68,2.6-3.02,3.96
		c-1.48,1.49-2.77,2.25-3.82,2.25C185.52,53.37,185.41,53.37,185.32,53.34z"/>
	<path class="st1" d="M191.2,52.13c-0.29-0.29-0.63-0.73-0.83-1.36c-0.2-0.6-0.31-1.46-0.09-2.41c0.31-1.36,1.6-3.49,4.11-5.04
		c0.17-0.06,1.08-0.54,2.11-0.54c0.4,0,0.83,0.09,1.23,0.29c0.51,0.25,0.97,0.73,1.23,1.33c0.17,0.38,0.06,0.7-0.23,0.76
		c-0.34,0.03-0.74-0.22-0.88-0.57c-0.11-0.22-0.23-0.32-0.31-0.35c-0.34-0.19-1.25-0.19-2.17,0.35c-2.2,1.33-3.48,3.24-3.79,4.54
		c-0.23,0.95-0.11,1.78,0.37,2.28c0.46,0.48,1.25,0.67,2.08,0.48c2.48-0.54,4.08-2.76,4.74-4.47c-0.14-0.19-0.23-0.41-0.34-0.63
		c-0.17-0.51-0.06-0.95,0.29-1.17c0.54-0.35,1,0,1.17,0.16c0.4,0.41,0.43,0.98,0.37,1.36l-0.03,0.25c0.11,0.1,0.26,0.16,0.4,0.22
		c0.4,0.22,1.06,0.44,1.8,0.25c0.8-0.16,1.51-0.73,2.14-1.62c0.14-0.25,0.54-0.22,0.86,0.06c0.31,0.25,0.46,0.6,0.31,0.86
		c-0.11,0.19-0.26,0.38-0.4,0.51c-0.86,1.05-1.88,1.59-3.02,1.59c-0.51,0-1.06-0.1-1.57-0.32c-0.31-0.13-0.57-0.29-0.83-0.44
		c-0.8,1.94-2.57,4.09-5.22,4.7c-0.31,0.06-0.57,0.09-0.86,0.09C192.85,53.27,191.88,52.86,191.2,52.13z"/>
	<path class="st1" d="M195.05,74.75c-0.83,0-1.43-0.38-1.83-0.7c-0.51-0.44-0.91-1.08-1.14-1.78c-0.37-1.08-0.37-2.41,0.03-3.81
		c0.63-2.19,2.14-4.54,4.62-7.17c2.2-2.28,4.77-4.5,7.3-6.63l0.11-0.1c0.54-2.73,0.91-5.23,1.11-7.2c-0.11-0.03-0.23-0.09-0.34-0.19
		c-0.34-0.25-0.51-0.67-0.37-0.95c0.46-0.89,0.8-1.97,0.97-2.86c0.03-0.13,0.11-0.22,0.23-0.29c0.11-0.03,0.26-0.03,0.4,0
		c0.03,0.03,0.11,0.06,0.14,0.06l0.14,0.09c0,0.03,0.03,0.03,0.03,0.06c0.26,0.19,0.37,0.48,0.34,0.73c0,1.59-0.34,5.11-1.03,9.14
		c2.88-2.51,5.42-4.85,6.54-6.95c0.14-0.25,0.51-0.29,0.86-0.03c0.31,0.25,0.46,0.7,0.31,0.95c-1.34,2.57-4.65,5.39-8.16,8.41
		c-0.17,0.83-0.34,1.71-0.57,2.57c-1.28,5.39-3.57,12.5-7.39,15.67c-0.66,0.57-1.37,0.89-2.08,0.95H195.05z M193.37,69.23
		c-0.29,0.98-0.37,2.16-0.08,3.04c0.11,0.35,0.29,0.63,0.54,0.86c0.57,0.51,1.6,0.32,2.57-0.51c3.62-3.01,5.88-9.93,7.13-15.2
		c0.03-0.16,0.06-0.29,0.09-0.44C199.16,60.79,194.54,65.01,193.37,69.23z M206.38,40.74c-0.34-0.16-0.6-0.57-0.54-0.89
		c0.23-1.4,0.66-3.17,0.68-3.27c0.09-0.32,0.4-0.38,0.74-0.19c0.34,0.19,0.54,0.6,0.48,0.92c0,0.03-0.48,1.81-0.68,3.17
		c0,0.22-0.2,0.35-0.37,0.35C206.58,40.84,206.5,40.81,206.38,40.74z"/>
	<path class="st1" d="M213.49,53.15c-0.71-0.38-1.28-0.95-1.63-1.68c-0.4-0.76-0.49-1.59-0.49-2.28c0-1.46,0.66-2.67,1.51-3.9
		c1.08-1.49,2.51-2.73,3.68-2.73c0.91,0,1.54,0.48,1.85,1.43c0.31,0.95-0.26,1.94-1.8,3.17c-1.03,0.79-2.45,1.68-3.97,2.44
		c-0.03,0.54,0.03,1.11,0.29,1.62c0.17,0.35,0.43,0.6,0.77,0.79c0.2,0.09,0.71,0.29,1.65,0.09c0.74-0.16,1.6-0.51,2.51-1.01
		c1.91-1.11,3.71-2.89,4.91-4.85c0.14-0.25,0.54-0.22,0.86,0.03c0.31,0.25,0.46,0.63,0.31,0.89c-1.23,2.03-3.17,3.96-5.22,5.14
		c-0.86,0.54-2.31,1.21-3.71,1.21C214.51,53.5,213.97,53.4,213.49,53.15z M217,43.88c-0.97,0-2.68,1.78-3.71,3.68
		c0.91-0.54,1.71-1.08,2.34-1.59c1.48-1.14,1.66-1.84,1.6-2l-0.03-0.09H217z"/>
	<path class="st1" d="M223.22,52.83c-0.74-0.51-1.31-1.36-1.54-2.22c-0.48-1.78,0.26-3.74,2-5.42c0.66-0.63,1.63-1.21,2.45-1.62
		c0.68-0.32,1.28-0.48,1.8-0.48c0.43,0,0.77,0.13,1.11,0.35c0.51,0.35,0.63,0.76,0.63,0.92c0.03,0.22-0.03,0.57-0.51,0.7
		c-0.4,0.06-1.14,0.03-1.74-0.44l-0.48,0.22c-0.77,0.38-1.63,0.95-2.17,1.55c-1.48,1.4-2.17,3.05-1.8,4.35
		c0.06,0.32,0.29,0.79,0.69,1.11c0.29,0.19,0.71,0.32,1.25,0.32c0.91,0,2.23-0.35,3.79-1.21c2.25-1.21,4.25-3.08,5.14-4.73
		c0.14-0.25,0.51-0.29,0.83-0.03c0.34,0.25,0.46,0.67,0.34,0.95c-0.97,1.81-3.05,3.74-5.45,5.04c-1.03,0.57-2.68,1.3-4.25,1.3
		C224.56,53.5,223.82,53.31,223.22,52.83z"/>
	<path class="st1" d="M223.65,36.3c-0.34-0.03-0.71-0.35-0.8-0.73c-0.09-0.35,0.08-0.63,0.43-0.6c0.77,0.06,1.77,0.06,3,0.06
		c2.91,0,6.88-0.13,11.07-0.32c1.46-3.46,3.17-6.69,4.82-9.26c0.17-0.22,0.54-0.22,0.86,0.06c0.31,0.25,0.43,0.7,0.26,0.92
		c-1.31,2.06-2.85,4.95-4.22,8.18c7.56-0.41,15.58-1.05,19.43-1.68c0.31-0.03,0.71,0.22,0.88,0.57c0.14,0.38,0.03,0.7-0.26,0.76
		c-3.42,0.54-10.36,1.14-18.12,1.59l-2.54,0.16l-0.23,0.6c-1.57,3.93-2.68,7.58-3.08,10.02l-0.09,0.44c-0.2,1.27-0.6,3.62,0.06,4.57
		c0.06,0.09,0.2,0.25,0.46,0.35c0.37,0.13,1.37,0,2.71-0.79c1.14-0.7,2.88-2.09,4.59-4.98c0.17-0.25,0.54-0.25,0.86,0
		s0.46,0.67,0.31,0.92c-2.71,4.47-5.85,6.22-7.73,6.22c-0.26,0-0.51-0.03-0.74-0.13c-0.57-0.19-1.06-0.57-1.43-1.11
		c-0.74-1.14-0.74-2.76-0.57-4.22c0.49-3.81,1.66-7.93,3.2-11.83c-3.88,0.19-7.33,0.29-9.93,0.29
		C225.53,36.36,224.44,36.33,223.65,36.3z"/>
</g>
</svg>
